# xmcd
#
# Track frame offsets: 
#        150
#        13979
#        27010
#        43663
#        61023
#        76129
#        89731
#        111187
#        126828
#        145942
#        162213
#
# Disc length: 2378 seconds
#
# Revision: 0
# Processed by: cddbd v1.5.2PL0 Copyright (c) Steve Scherf et al.
# Submitted via: ExactAudioCopy v0.95b4
#
DISCID=8b09480b
DTITLE=HIGH VALLEY - LOVE IS A LONG ROAD
DYEAR=2012
DGENRE=COUNTRY
TTITLE0=LET IT BE ME
TTITLE1=LOVE IS A LONG ROAD
TTITLE2=HAVE I TOLD YOU I LOVE YOU LATELY
TTITLE3=NOT THAT LONG AGO
TTITLE4=TRYING TO BELIEVE
TTITLE5=LOVE YOU FOR A LONG TIME
TTITLE6=NEVER TOOK HER DANCING
TTITLE7=HOME SWEET YOU
TTITLE8=RIGHT HERE BESIDE HER
TTITLE9=DIRT RICH
TTITLE10=PORCHES
EXTD=
EXTT0=
EXTT1=
EXTT2=
EXTT3=
EXTT4=
EXTT5=
EXTT6=
EXTT7=
EXTT8=
EXTT9=
EXTT10=
PLAYORDER=
